<svg xmlns="http://www.w3.org/2000/svg" width="14" height="13" viewBox="0 0 14 13" shape-rendering="crispEdges" role="img" aria-label="linkedin icon"><rect x="0" y="0" width="14" height="1" fill="#0f172a"/><rect x="0" y="1" width="1" height="1" fill="#0f172a"/><rect x="1" y="1" width="12" height="1" fill="#2e7bc4"/><rect x="13" y="1" width="1" height="1" fill="#0f172a"/><rect x="0" y="2" width="1" height="1" fill="#0f172a"/><rect x="1" y="2" width="12" height="1" fill="#2e7bc4"/><rect x="13" y="2" width="1" height="1" fill="#0f172a"/><rect x="0" y="3" width="1" height="1" fill="#0f172a"/><rect x="1" y="3" width="2" height="1" fill="#2e7bc4"/><rect x="3" y="3" width="1" height="1" fill="#f8fafc"/><rect x="4" y="3" width="9" height="1" fill="#2e7bc4"/><rect x="13" y="3" width="1" height="1" fill="#0f172a"/><rect x="0" y="4" width="1" height="1" fill="#0f172a"/><rect x="1" y="4" width="12" height="1" fill="#2e7bc4"/><rect x="13" y="4" width="1" height="1" fill="#0f172a"/><rect x="0" y="5" width="1" height="1" fill="#0f172a"/><rect x="1" y="5" width="2" height="1" fill="#2e7bc4"/><rect x="3" y="5" width="1" height="1" fill="#f8fafc"/><rect x="4" y="5" width="2" height="1" fill="#2e7bc4"/><rect x="6" y="5" width="4" height="1" fill="#f8fafc"/><rect x="10" y="5" width="3" height="1" fill="#2e7bc4"/><rect x="13" y="5" width="1" height="1" fill="#0f172a"/><rect x="0" y="6" width="1" height="1" fill="#0f172a"/><rect x="1" y="6" width="2" height="1" fill="#2e7bc4"/><rect x="3" y="6" width="1" height="1" fill="#f8fafc"/><rect x="4" y="6" width="2" height="1" fill="#2e7bc4"/><rect x="6" y="6" width="1" height="1" fill="#f8fafc"/><rect x="7" y="6" width="2" height="1" fill="#2e7bc4"/><rect x="9" y="6" width="1" height="1" fill="#f8fafc"/><rect x="10" y="6" width="3" height="1" fill="#2e7bc4"/><rect x="13" y="6" width="1" height="1" fill="#0f172a"/><rect x="0" y="7" width="1" height="1" fill="#0f172a"/><rect x="1" y="7" width="2" height="1" fill="#2e7bc4"/><rect x="3" y="7" width="1" height="1" fill="#f8fafc"/><rect x="4" y="7" width="2" height="1" fill="#2e7bc4"/><rect x="6" y="7" width="1" height="1" fill="#f8fafc"/><rect x="7" y="7" width="2" height="1" fill="#2e7bc4"/><rect x="9" y="7" width="1" height="1" fill="#f8fafc"/><rect x="10" y="7" width="3" height="1" fill="#2e7bc4"/><rect x="13" y="7" width="1" height="1" fill="#0f172a"/><rect x="0" y="8" width="1" height="1" fill="#0f172a"/><rect x="1" y="8" width="2" height="1" fill="#2e7bc4"/><rect x="3" y="8" width="1" height="1" fill="#f8fafc"/><rect x="4" y="8" width="2" height="1" fill="#2e7bc4"/><rect x="6" y="8" width="1" height="1" fill="#f8fafc"/><rect x="7" y="8" width="2" height="1" fill="#2e7bc4"/><rect x="9" y="8" width="1" height="1" fill="#f8fafc"/><rect x="10" y="8" width="3" height="1" fill="#2e7bc4"/><rect x="13" y="8" width="1" height="1" fill="#0f172a"/><rect x="0" y="9" width="1" height="1" fill="#0f172a"/><rect x="1" y="9" width="2" height="1" fill="#2e7bc4"/><rect x="3" y="9" width="1" height="1" fill="#f8fafc"/><rect x="4" y="9" width="2" height="1" fill="#2e7bc4"/><rect x="6" y="9" width="1" height="1" fill="#f8fafc"/><rect x="7" y="9" width="2" height="1" fill="#2e7bc4"/><rect x="9" y="9" width="1" height="1" fill="#f8fafc"/><rect x="10" y="9" width="3" height="1" fill="#2e7bc4"/><rect x="13" y="9" width="1" height="1" fill="#0f172a"/><rect x="0" y="10" width="1" height="1" fill="#0f172a"/><rect x="1" y="10" width="12" height="1" fill="#2e7bc4"/><rect x="13" y="10" width="1" height="1" fill="#0f172a"/><rect x="0" y="11" width="1" height="1" fill="#0f172a"/><rect x="1" y="11" width="12" height="1" fill="#2e7bc4"/><rect x="13" y="11" width="1" height="1" fill="#0f172a"/><rect x="0" y="12" width="14" height="1" fill="#0f172a"/></svg>
